<?xml version="1.0" encoding="UTF-8"?>
<svg id="Layer_1" data-name="Layer 1" xmlns="http://www.w3.org/2000/svg" viewBox="0 0 1080 1080">
  <defs>
    <style>
      .cls-1 {
        fill: #fff;
      }
    </style>
  </defs>
  <path class="cls-1" d="m304.06,569.23c-3.27,0-13.69,2.68-25.3,6.85l2.98-12.2c3.57-14.88,10.12-50.01,13.4-66.38,11.91-60.42,18.45-109.24,48.22-126.8l-1.79-1.19c-5.95,2.08-11.31,5.06-16.37,8.34-118.17,22.92-159.25,78.88-159.25,129.78,0,42.27,31.85,64.29,55.66,64.29,9.23,0,17.86-2.68,23.52-9.23l-1.19-2.08c-5.06,4.46-10.72,5.95-16.67,5.95-25.9,0-42.86-26.79-42.86-61.02,0-46.14,33.04-96.74,131.86-120.25-24.11,22.62-37.51,61.32-44.65,92.57-6.55,30.06-11.01,70.54-20.24,109.24l-4.46,2.38c-19.35,11.01-33.34,23.22-42.86,36.91-17.56-14.88-42.27-25-70.55-25-46.43,0-96.14,27.39-96.14,69.65,0,28.28,24.41,54.17,76.5,54.17,31.25,0,60.72-9.53,86.62-27.38,3.87,3.57,8.33,5.36,12.8,5.36,9.23,0,18.16-8.34,18.16-25.3,0-2.68-.3-5.06-.59-7.44,19.64-22.62,35.72-51.79,46.14-87.81,9.53-2.98,19.05-4.76,25.6-5.36,3.87-.3,3.87-3.57,3.87-5.36s-1.49-2.68-2.38-2.68Zm-107.75,123.53c-16.37,13.1-36.91,20.84-63.1,20.84-59.23,0-88.4-23.81-88.4-50.6,0-25,22.32-46.43,82.45-46.43,33.34,0,56.55,7.44,72.33,17.56-5.95,11.01-8.93,23.22-8.93,36.91,0,8.93,2.38,16.37,5.66,21.73Zm7.74-25c0-8.63,1.49-17.86,4.46-26.79,7.44,6.25,12.2,13.39,14.88,19.94-4.76,8.04-10.12,15.18-16.37,21.73-1.79-3.57-2.98-8.63-2.98-14.88Zm12.5,21.73c-1.49,0-2.68-.3-3.87-.89,4.76-4.17,9.53-8.63,13.99-13.4,0,8.63-4.17,14.29-10.12,14.29Zm9.82-33.93c-3.27-7.74-8.33-15.18-14.58-22.03,6.85-14.88,18.45-28.87,35.12-38.69l2.68-1.49c-5.66,22.33-12.8,43.76-23.22,62.21Z"/>
  <path class="cls-1" d="m562.42,473.09c9.82,0,16.37-13.4,16.37-21.73,0-5.36-3.57-7.74-7.74-7.74-10.42,0-16.07,12.5-16.07,21.73,0,5.36,3.27,7.74,7.44,7.74Z"/>
  <path class="cls-1" d="m1020.91,422.49h0c-21.63-25.49-16.06-32.82,16.73-67.69-42.01,39.51-44.04,39.51-86.05,0,39.51,42.01,39.51,44.04,0,86.05,34.93-32.85,42.24-38.36,67.85-16.59h0c7.44,10.72,11.61,22.93,11.61,36.32,0,21.13-13.99,75.01-72.63,75.01-54.17,0-101.5-47.33-144.66-47.33-46.14,0-60.72,24.41-81.86,78.28l19.35-79.18-1.49-.6c-6.48,7.56-16.88,17.32-35.41,29.29,2.32-4.47,3.49-8.76,3.49-12.62,0-9.82-7.74-16.97-22.03-16.97-47.72,0-84.45,59.72-88.1,102.2-11.91,18.84-16.47,21.63-19.35,21.63-1.79,0-2.98-1.49-2.98-6.25,0-8.33,10.12-58.94,19.94-106.26l22.32.89c.89-3.27,2.08-7.14,4.17-10.12l-.3-.89c-11.91.59-17.86.59-24.11.59l13.69-61.32-.89-.59c-3.57,4.76-8.63,7.44-14.59,7.44-1.79,0-4.47-.3-6.25-1.19-2.08,15.18-5.66,34.83-9.82,55.66-6.68,0-13.07,0-18.64-.56.05-.21.1-.43.15-.63l-1.19-.89c-6.79,7.93-17.37,17.74-38.36,31.23-2.9-22.21-16.94-31.86-35.46-31.86-10.12,0-21.73,3.57-33.64,9.23l3.28-11.91-1.19-.89c-5.61,4.14-16.81,5.63-30.36,5.65v-.26c-3.28.6-8.04.89-14.29.89-11.01,0-13.69-.3-18.46-.89v1.49c4.76,1.79,5.36,5.06,5.36,9.53,0,24.41-20.24,53.88-37.21,77.69-13.1,18.16-26.19,34.83-33.93,34.83-3.87,0-5.36-2.38-5.36-8.34,0-13.69,17.56-88.4,23.52-115.19l-1.19-1.19c-7.14,8.33-19.35,19.65-41.67,33.34l1.49,1.49c6.55-4.17,8.93-5.36,10.72-5.36,2.38,0,2.98,1.49,2.98,4.17,0,12.8-18.45,77.99-18.45,98.52,0,11.01,5.06,13.69,9.52,13.69,22.92,0,67.27-66.67,82.75-97.04-13.1,52.68-20.84,76.8-20.84,88.7,0,6.25,2.68,8.33,6.25,8.33,9.84,0,23.85-13.5,34.61-27.98-1.69,7.57-3.42,15.06-5.14,22.29-7.14,29.47-8.33,46.14-22.92,64.89-8.63-1.49-21.73-4.17-32.45-4.17s-18.75,2.68-18.75,11.91c0,7.44,6.85,9.82,15.48,9.82,10.72,0,25.9-5.36,31.85-8.63,17.56,2.98,29.17,4.17,52.09,4.17,29.47,0,61.32-5.06,73.82-37.5l-1.49-2.68c-14.59,27.39-34.83,30.96-66.38,30.96-22.92,0-36.91-1.19-47.92-2.68,14.88-11.01,25.3-27.68,34.23-61.02h2.68c63.1,0,97.04-63.4,97.04-105.07,0-2.2-.1-4.3-.28-6.31,5.25-3.19,7.35-4.37,9.2-4.37s2.38,1.49,2.38,4.17c0,2.38-.59,5.36-1.19,8.63l-8.93,42.86c-5.95,28.28-9.82,43.76-9.82,51.79,0,6.25,2.98,8.93,6.55,8.93,9.1,0,23.85-15.35,34.69-31.02-2.11,10.56-3.4,18.37-3.4,22.09,0,6.25,2.98,8.93,6.55,8.93,9.13,0,25.2-15.95,39.61-38.51-.02.64-.03,1.27-.03,1.9,0,21.13,9.23,36.61,30.36,36.61,15.18,0,40.48-8.93,61.02-43.46l-1.49-1.49c-15.18,23.81-31.85,28.87-44.65,28.87-17.56,0-24.7-13.39-24.7-31.55,0-6.85.89-14.59,2.98-22.33,43.1-7.4,69.63-25.15,80.78-41.61,5.35-3.31,7-4.53,8.88-4.53,2.08,0,2.98,1.49,2.98,4.17,0,2.38-.59,5.06-1.19,8.33-18.16,85.13-16.37,94.06-27.98,99.72v1.49c3.27-.3,8.04-.59,14.29-.59,11.01,0,15.78.3,20.54.59v-1.49c-4.17-1.49-5.66-4.76-5.66-9.23,0-20.84,25.9-121.44,73.82-121.44,37.8,0,70.84,44.65,142.58,44.65,56.85,0,102.69-29.17,102.69-72.33,0-15.48-6.55-32.15-21.73-47.33Zm-587.08,66.53v.11c5.06,0,6.85,1.79,6.85,8.63,0,1.79-.59,5.66-1.49,11.31-7.68,5.71-14.55,12.06-20.37,18.71,6.71-33.95,8.35-35.42,15.02-38.77Zm-12.45,108.51c-4.2,5.97-8.27,10.4-11.95,10.4-3.27,0-3.57-2.98-3.57-5.95,0-10.12,4.46-29.17,8.04-48.52,1.39-7.36,2.62-13.82,3.72-19.5,5.82-6.26,12.88-12.6,20.39-18.04-3.62,19.44-9.81,50.73-16.62,81.61Zm33.89,24.95c-6.25,0-13.69-1.19-19.94-2.98,5.95-30.06,17.26-82.75,25.3-116.68,8.04-3.57,15.78-5.65,22.62-5.65,16.37,0,28.28,7.74,28.28,35.72,0,33.64-18.75,89.6-56.26,89.6Zm95.25-12.47c-1.79,0-2.98-1.19-2.98-5.95,0-11.87,13.86-74.93,20.85-105.49,7.72-.51,13.53-.77,19.07-.77-7.5,34.81-16.24,71.72-21.49,96.87-7.68,11.8-12.71,15.35-15.45,15.35Zm81.29-51.49c8.93-32.15,31.55-66.08,53.58-66.08,8.34,0,12.2,4.46,12.2,11.31,0,16.97-22.32,47.62-65.78,54.77Z"/>
</svg>